<svg xmlns="http://www.w3.org/2000/svg" viewBox="0 0 28.19 45.5"><defs><style>.cls-1{fill:#ff1730;}.cls-2{fill:#ff1731;}.cls-3{fill:#b50d14;}.cls-4{fill:#b60f16;}</style></defs><title>Ativo 1</title><g id="Camada_2" data-name="Camada 2"><g id="Camada_1-2" data-name="Camada 1"><path class="cls-1" d="M28.19,18s-1,6-8,6-18-1-19.5,2.5a12,12,0,0,1-.54-2.09c-.35-2-.29-5,2.54-5.91,4.08-1.36,21.68-.67,25-.52Z"/><path class="cls-2" d="M19.19,8c0,4.42-2.69,8-6,8a3.44,3.44,0,0,1-.46,0c-3.1-.31-5.54-3.76-5.54-8,0-4.42,2.69-8,6-8,2.55,0,4.73,2.12,5.6,5.12A10.28,10.28,0,0,1,19.19,8Z"/><path class="cls-3" d="M19.19,8c0,4.42-2.69,8-6,8a3.44,3.44,0,0,1-.46,0,6.81,6.81,0,0,1-2.54-5.47c0-3.59,2.46-6.5,5.5-6.5a5,5,0,0,1,3.1,1.12A10.28,10.28,0,0,1,19.19,8Z"/><path class="cls-4" d="M28.19,18s-1,6-8,6-18-1-19.5,2.5a12,12,0,0,1-.54-2.09,13.44,13.44,0,0,1,4-2.41c5-2,10,0,16-1a19.58,19.58,0,0,0,7.47-3Z"/><path class="cls-1" d="M22.69,33.76s-.69,4.76-5.54,4.76-12.47-.8-13.5,2a10.55,10.55,0,0,1-.38-1.66C3,37.23,3.07,34.9,5,34.16c2.83-1.08,15-.53,17.29-.42Z"/><path class="cls-4" d="M22.69,33.76s-.69,4.76-5.54,4.76-12.47-.8-13.5,2a10.55,10.55,0,0,1-.38-1.66,9.17,9.17,0,0,1,2.8-1.91c3.46-1.58,6.92,0,11.08-.79a12.63,12.63,0,0,0,5.17-2.4Z"/><path class="cls-1" d="M19.69,40.69a4.06,4.06,0,0,1-4.1,3.39c-3.58,0-9.21-.56-10,1.42a7.4,7.4,0,0,1-.27-1.18c-.18-1.16-.15-2.82,1.3-3.35,2.08-.77,11.09-.38,12.78-.3Z"/><path class="cls-4" d="M19.69,40.69a4.06,4.06,0,0,1-4.1,3.39c-3.58,0-9.21-.56-10,1.42a7.4,7.4,0,0,1-.27-1.18A6.61,6.61,0,0,1,7.4,43c2.56-1.13,5.12,0,8.19-.57a9.39,9.39,0,0,0,3.83-1.71Z"/><path class="cls-1" d="M25.69,26.76s-.84,4.76-6.74,4.76-15.15-.8-16.41,2a9.1,9.1,0,0,1-.46-1.66c-.29-1.61-.24-3.94,2.14-4.68,3.43-1.08,18.25-.53,21-.42Z"/><path class="cls-4" d="M25.69,26.76s-.84,4.76-6.74,4.76-15.15-.8-16.41,2a9.1,9.1,0,0,1-.46-1.66,11.57,11.57,0,0,1,3.4-1.91c4.21-1.58,8.42,0,13.47-.79a17,17,0,0,0,6.29-2.4Z"/></g></g></svg>